HIERARCHY
ROOT Hips
{
	OFFSET -0.001795 -0.223333 0.028219
	CHANNELS 6 Xposition Yposition Zposition Zrotation Yrotation Xrotation 
	JOINT LeftUpLeg
	{
		OFFSET 0.069520 -0.091406 -0.006815
		CHANNELS 3 Zrotation Yrotation Xrotation
		JOINT LeftLeg
		{
			OFFSET 0.034277 -0.375199 -0.004496
			CHANNELS 3 Zrotation Yrotation Xrotation
			JOINT LeftFoot
			{
				OFFSET -0.013596 -0.397961 -0.043693
				CHANNELS 3 Zrotation Yrotation Xrotation
				JOINT LeftToe
				{
					OFFSET 0.026358 -0.055791 0.119288
					CHANNELS 3 Zrotation Yrotation Xrotation
					End Site
					{
						OFFSET 0.000000 0.000000 0.000000
					}
				}
			}
		}
	}
	JOINT RightUpLeg
	{
		OFFSET -0.067670 -0.090522 -0.004320
		CHANNELS 3 Zrotation Yrotation Xrotation
		JOINT RightLeg
		{
			OFFSET -0.038290 -0.382569 -0.008850
			CHANNELS 3 Zrotation Yrotation Xrotation
			JOINT RightFoot
			{
				OFFSET 0.015774 -0.398415 -0.042312
				CHANNELS 3 Zrotation Yrotation Xrotation
				JOINT RightToe
				{
					OFFSET -0.025372 -0.048144 0.123348
					CHANNELS 3 Zrotation Yrotation Xrotation
					End Site
					{
						OFFSET 0.000000 0.000000 0.000000
					}
				}
			}
		}
	}
	JOINT Spine
	{
		OFFSET -0.002533 0.108963 -0.026696
		CHANNELS 3 Zrotation Yrotation Xrotation
		JOINT Spine1
		{
			OFFSET 0.005487 0.135180 0.001092
			CHANNELS 3 Zrotation Yrotation Xrotation
			JOINT Spine2
			{
				OFFSET 0.001457 0.052922 0.025425
				CHANNELS 3 Zrotation Yrotation Xrotation
				JOINT Neck
				{
					OFFSET -0.002778 0.213870 -0.042857
					CHANNELS 3 Zrotation Yrotation Xrotation
					JOINT Head
					{
						OFFSET 0.005152 0.064970 0.051349
						CHANNELS 3 Zrotation Yrotation Xrotation
						End Site
						{
							OFFSET 0.000000 0.000000 0.000000
						}
					}
				}
				JOINT LeftShoulder
				{
					OFFSET 0.078845 0.121749 -0.034090
					CHANNELS 3 Zrotation Yrotation Xrotation
					JOINT LeftArm
					{
						OFFSET 0.090977 0.030469 -0.008868
						CHANNELS 3 Zrotation Yrotation Xrotation
						JOINT LeftForeArm
						{
							OFFSET 0.259612 -0.012772 -0.027456
							CHANNELS 3 Zrotation Yrotation Xrotation
							JOINT LeftHand
							{
								OFFSET 0.249234 0.008986 -0.001171
								CHANNELS 3 Zrotation Yrotation Xrotation
								End Site
								{
									OFFSET 0.000000 0.000000 0.000000
								}
							}
						}
					}
				}
				JOINT RightShoulder
				{
					OFFSET -0.081759 0.118833 -0.038615
					CHANNELS 3 Zrotation Yrotation Xrotation
					JOINT RightArm
					{
						OFFSET -0.096012 0.032551 -0.009143
						CHANNELS 3 Zrotation Yrotation Xrotation
						JOINT RightForeArm
						{
							OFFSET -0.253742 -0.013329 -0.021401
							CHANNELS 3 Zrotation Yrotation Xrotation
							JOINT RightHand
							{
								OFFSET -0.255298 0.007772 -0.005559
								CHANNELS 3 Zrotation Yrotation Xrotation
								End Site
								{
									OFFSET 0.000000 0.000000 0.000000
								}
							}
						}
					}
				}
			}
		}
	}
}
MOTION
Frames: 6
Frame Time: 0.050000
0.000000 0.941536 0.000000 -1.876496 0.213451 -1.927268 1.412579 0.377061 4.971000 1.897398 -0.534037 6.281921 2.134137 6.650362 6.432586 0.000000 0.000000 0.000000 1.006397 1.082632 -10.076752 -1.040859 0.820768 14.428621 2.060686 0.499762 8.670100 0.000000 0.000000 0.000000 5.465624 -0.823032 9.097448 0.219015 -0.232471 3.958932 -4.872692 0.231659 0.922342 6.903470 -3.818336 -9.570984 0.000000 0.000000 0.000000 -21.751335 -8.844270 2.227047 -47.828309 -7.617979 -2.272399 -5.603750 -35.825139 2.985822 0.000000 0.000000 0.000000 21.495317 -1.076175 -2.333318 56.348656 -0.295855 -5.346882 6.002175 39.042778 3.499100 0.000000 0.000000 0.000000 
-0.011054 0.939929 0.010068 -1.947703 0.621752 -1.931214 2.485442 0.202609 3.297056 1.181503 -0.616779 10.481822 2.557526 7.321085 6.023927 0.000000 0.000000 0.000000 2.104653 1.067807 -9.294179 -1.420962 0.887382 14.184454 1.514243 -0.138582 7.643910 0.000000 0.000000 0.000000 6.502709 -0.975369 9.722199 -0.193233 -0.035390 4.423122 -5.118510 1.192198 0.011584 6.341104 -2.936890 -11.981831 0.000000 0.000000 0.000000 -21.489038 -8.853436 1.821029 -47.986786 -7.778775 -2.028459 -5.302224 -35.076672 2.688718 0.000000 0.000000 0.000000 21.251185 -2.088194 -2.570543 56.942277 -0.827153 -5.605146 6.385592 38.016946 3.641393 0.000000 0.000000 0.000000 
-0.020578 0.940083 0.018954 -1.702162 1.142153 -2.590532 3.064903 -0.052871 -0.413985 -0.084734 -0.716208 19.105564 3.507251 9.501650 7.803165 0.000000 0.000000 0.000000 2.758052 1.000396 -8.369276 -1.824797 1.012310 14.961746 1.143030 -0.604957 7.011312 0.000000 0.000000 0.000000 6.565390 -1.091584 10.907951 0.158916 -0.193124 3.345470 -5.878999 1.874825 1.358627 5.956040 -2.632478 -12.055942 0.000000 0.000000 0.000000 -21.408791 -9.049418 1.668385 -48.039753 -7.722487 -2.100866 -5.496079 -34.531932 2.638826 0.000000 0.000000 0.000000 22.196664 -0.883921 -1.615663 56.284507 0.175216 -5.297432 3.628019 35.936650 2.695656 0.000000 0.000000 0.000000 
-0.027703 0.940930 0.027479 -2.040041 1.625258 -3.357074 5.126279 -0.273689 -5.027302 -3.777220 0.166214 29.069818 5.335405 13.278395 11.540133 0.000000 0.000000 0.000000 3.291068 0.877465 -7.103770 -1.195464 0.855202 15.204742 0.964561 -0.946294 7.020931 0.000000 0.000000 0.000000 7.440142 -1.267377 11.825272 -0.524251 0.113358 4.771900 -5.779542 3.202570 0.056818 6.124534 -2.691827 -11.471673 0.000000 0.000000 0.000000 -21.471454 -8.942475 1.057861 -47.725699 -6.737908 -2.208208 -6.035352 -36.751027 2.778902 0.000000 0.000000 0.000000 20.526380 -1.280855 -1.360878 56.319987 0.528667 -5.022104 4.295420 35.303062 2.961651 0.000000 0.000000 0.000000 
-0.031940 0.942423 0.036455 -1.686946 3.262340 -4.019684 7.021018 -0.404893 -10.402042 -8.988539 2.134782 38.145442 7.827071 17.616661 16.680170 0.000000 0.000000 0.000000 2.806327 0.558268 -4.635218 -0.456180 0.559911 13.338017 0.410282 -1.945319 6.892172 0.000000 0.000000 0.000000 7.675734 -1.392151 12.608478 -1.020560 0.407041 3.128820 -5.564739 4.306427 1.962567 6.294551 -2.787167 -11.049462 0.000000 0.000000 0.000000 -23.415548 -9.350292 0.620249 -46.061187 -6.124543 -2.287079 -7.426187 -37.543094 3.191839 0.000000 0.000000 0.000000 20.298107 -1.314953 -0.868306 55.564434 1.156195 -4.922814 4.867297 34.002606 3.176496 0.000000 0.000000 0.000000 
-0.033144 0.943491 0.046511 -0.977287 3.826975 -4.678079 7.686039 -0.461010 -13.646860 -11.883490 3.499926 40.927866 10.041990 20.725143 21.683061 0.000000 0.000000 0.000000 2.162154 0.285602 -2.479612 -0.494575 0.517564 12.123696 0.234123 -2.157867 6.544614 0.000000 0.000000 0.000000 6.914781 -1.392534 13.450962 -0.965994 0.402702 2.353951 -5.747172 5.898213 2.677396 8.069278 -3.660468 -11.997306 0.000000 0.000000 0.000000 -23.176031 -8.761512 -0.287606 -46.102305 -5.110009 -2.557014 -8.860193 -37.984261 3.503474 0.000000 0.000000 0.000000 19.464886 -1.348007 -0.383397 55.467302 1.714784 -4.772845 4.728647 33.186659 3.213452 0.000000 0.000000 0.000000 
